<?xml version="1.0" standalone="no"?>
<!DOCTYPE svg PUBLIC "-//W3C//DTD SVG 20010904//EN"
 "http://www.w3.org/TR/2001/REC-SVG-20010904/DTD/svg10.dtd">
<svg version="1.0" xmlns="http://www.w3.org/2000/svg"
 width="612.000000pt" height="612.000000pt" viewBox="0 0 612.000000 612.000000"
 preserveAspectRatio="xMidYMid meet">

<g transform="translate(0.000000,612.000000) scale(0.100000,-0.100000)"
fill="#77B5D9" stroke="none">
<path d="M1629 5766 c-140 -53 -232 -158 -259 -297 -6 -31 -10 -160 -9 -299
l2 -245 -26 -52 c-90 -176 -157 -438 -157 -612 0 -39 -5 -48 -40 -78 -53 -46
-99 -141 -106 -223 -13 -135 61 -315 164 -400 33 -28 129 -79 175 -94 9 -3 17
-13 17 -22 0 -29 61 -196 100 -275 41 -80 114 -192 161 -247 16 -18 29 -43 28
-55 0 -12 -19 -73 -42 -136 l-42 -115 -120 -38 c-320 -102 -759 -271 -855
-328 -124 -74 -218 -177 -275 -303 -49 -106 -55 -174 -55 -610 0 -399 0 -402
23 -442 14 -24 40 -50 67 -65 l45 -25 1815 -3 1816 -2 33 -101 c18 -56 56
-146 83 -201 43 -85 57 -104 96 -129 73 -46 164 -39 226 19 41 39 53 74 66
192 29 270 98 513 177 618 29 39 42 40 75 5 78 -83 161 -372 184 -638 7 -84
23 -137 52 -168 31 -34 89 -57 144 -57 93 0 138 42 212 201 121 259 168 553
145 894 -14 207 -14 203 73 339 124 194 196 393 205 566 9 179 -34 303 -143
420 -118 125 -274 192 -449 193 -111 1 -177 -14 -285 -65 -54 -26 -81 -32
-156 -36 -82 -4 -97 -2 -155 23 -179 77 -270 94 -395 75 -245 -37 -434 -190
-494 -399 l-23 -78 -210 69 c-116 37 -216 68 -222 68 -9 0 -105 251 -105 274
0 2 29 42 63 89 35 46 72 99 82 118 67 130 91 184 120 273 27 83 37 101 56
107 54 14 132 62 181 112 143 142 183 366 96 530 -18 33 -44 68 -59 79 -24 18
-27 28 -33 111 -14 188 -63 369 -146 545 l-49 102 -1 265 c0 240 -2 271 -21
319 -35 96 -97 163 -199 217 l-45 24 -785 2 c-630 1 -792 -1 -821 -11z m1540
-177 c65 -14 124 -70 140 -133 6 -25 11 -122 11 -215 l0 -171 -182 0 -183 1
-37 77 c-158 332 -580 414 -848 165 -61 -56 -117 -138 -141 -205 l-13 -38
-183 0 -183 0 0 178 c0 98 5 195 11 217 14 50 74 109 126 123 54 14 1416 16
1482 1z m-587 -351 c150 -69 234 -241 194 -398 -22 -85 -77 -165 -146 -212
-69 -46 -132 -62 -225 -56 -131 9 -235 82 -293 206 -22 48 -26 70 -26 142 1
93 16 140 73 217 90 123 278 167 423 101z m-674 -432 l14 -78 -148 -150 c-82
-82 -178 -169 -214 -192 -64 -43 -178 -92 -188 -81 -8 7 16 152 39 243 25 93
71 207 116 284 l33 57 167 -2 167 -2 14 -79z m1414 67 c28 -32 95 -176 127
-273 30 -94 67 -287 56 -298 -13 -13 -276 19 -385 47 -111 29 -322 109 -343
130 -8 8 2 24 32 53 24 24 59 66 77 95 36 54 84 185 84 226 0 13 3 27 7 30 3
4 79 7 168 7 142 0 164 -2 177 -17z m-1247 -354 c49 -49 174 -113 252 -129 35
-8 93 -10 147 -7 87 6 90 5 133 -24 24 -17 87 -51 140 -75 208 -97 391 -145
626 -164 192 -16 247 -47 269 -152 10 -47 9 -65 -6 -122 -30 -108 -133 -205
-219 -206 -39 0 -84 -28 -96 -59 -6 -14 -18 -57 -27 -96 -54 -230 -205 -464
-387 -601 -274 -206 -626 -216 -910 -26 -210 139 -378 399 -436 672 -17 77
-47 110 -103 110 -35 0 -119 43 -155 79 -47 48 -75 113 -80 190 -8 119 34 159
227 221 161 51 225 93 405 271 88 87 165 158 170 158 6 0 28 -18 50 -40z
m2405 -1783 c164 -69 168 -70 295 -70 127 -1 133 0 295 69 119 51 240 44 369
-21 80 -40 132 -93 170 -173 36 -79 41 -206 12 -322 -24 -95 -98 -255 -164
-356 -103 -158 -114 -207 -97 -411 20 -228 1 -451 -55 -647 -27 -95 -92 -262
-106 -271 -8 -5 -9 -2 -34 176 -42 304 -124 530 -228 631 -59 57 -93 73 -157
73 -148 0 -261 -145 -335 -431 -28 -107 -65 -325 -65 -388 -1 -71 -14 -71 -48
-3 -49 101 -100 265 -123 399 -20 113 -21 148 -16 385 8 321 4 341 -95 487
-59 87 -134 243 -157 327 -56 199 -30 348 77 455 119 117 310 155 462 91z
m-1415 -68 c14 -40 31 -83 36 -96 5 -13 9 -29 9 -36 0 -13 -136 -231 -268
-429 -36 -54 -86 -116 -110 -137 -158 -134 -385 -147 -560 -30 -68 46 -104 90
-228 283 -49 76 -111 171 -137 212 l-48 74 37 110 c20 61 40 111 45 111 5 0
34 -16 66 -37 194 -124 427 -180 632 -154 155 20 323 85 446 172 22 15 43 28
47 29 3 0 18 -33 33 -72z m-1242 -600 c53 -81 115 -168 139 -194 81 -88 210
-161 327 -185 l61 -13 0 -343 0 -343 -935 0 -935 0 0 384 c0 420 3 446 63 549
39 66 138 152 220 191 105 50 391 158 626 237 l204 68 67 -102 c37 -56 110
-168 163 -249z m1687 279 c192 -64 215 -75 222 -97 4 -14 19 -66 32 -117 29
-104 91 -237 174 -367 73 -116 83 -155 70 -277 -10 -96 -5 -436 8 -476 l6 -23
-741 0 -741 0 0 345 0 345 28 5 c57 13 163 58 219 94 94 61 168 152 328 404
92 146 155 237 165 236 8 0 112 -33 230 -72z"/>
<path d="M1145 1703 c-23 -25 -25 -35 -25 -115 l0 -88 -86 0 c-81 0 -87 -1
-115 -29 -39 -39 -39 -80 0 -123 l29 -33 404 -3 c431 -3 465 0 494 44 28 42
15 111 -25 131 -9 4 -128 10 -266 13 l-250 5 -2 70 c-1 39 -2 78 -2 88 -1 10
-12 29 -26 42 -35 36 -95 35 -130 -2z"/>
</g>
</svg>
