<?xml version="1.0" standalone="no"?>
<!DOCTYPE svg PUBLIC "-//W3C//DTD SVG 20010904//EN"
 "http://www.w3.org/TR/2001/REC-SVG-20010904/DTD/svg10.dtd">
<svg version="1.0" xmlns="http://www.w3.org/2000/svg"
 width="4500.000000pt" height="4500.000000pt" viewBox="0 0 4500.000000 4500.000000"
 preserveAspectRatio="xMidYMid meet">

<g transform="translate(0.000000,4500.000000) scale(0.100000,-0.100000)"
fill="#77B5D9" stroke="none">
<path d="M30395 37074 c-27 -2 -126 -8 -220 -14 -888 -57 -1954 -262 -2985
-575 -411 -125 -1006 -330 -1320 -455 -562 -225 -1326 -384 -2160 -450 -573
-45 -1336 -43 -1970 6 -1305 99 -2695 378 -4130 829 -529 166 -879 260 -1265
339 -1553 318 -3015 220 -4285 -287 -706 -281 -1310 -656 -1885 -1168 -150
-133 -460 -448 -586 -594 -775 -902 -1295 -1995 -1433 -3010 -8 -60 -18 -153
-21 -205 -4 -52 -17 -171 -30 -265 -149 -1063 -98 -2425 156 -4200 284 -1985
839 -4458 1539 -6849 452 -1542 870 -2742 1387 -3981 507 -1214 1352 -3068
2406 -5280 733 -1540 709 -1493 902 -1735 491 -615 1099 -1055 1658 -1199 195
-51 318 -64 522 -58 235 7 374 36 595 121 492 191 988 647 1423 1308 93 141
116 191 1436 3106 l1342 2963 -33 38 c-18 21 -393 431 -833 910 -563 615 -802
869 -808 859 -35 -58 -2547 -5193 -2607 -5329 -294 -663 -534 -1000 -798
-1122 -38 -18 -65 -22 -147 -22 -94 0 -105 2 -170 34 -84 42 -207 156 -287
268 -203 283 -398 752 -582 1394 -39 137 -84 262 -147 410 -294 694 -721 1734
-1089 2654 -1404 3510 -2446 6466 -3029 8590 -320 1170 -590 2541 -715 3635
-141 1230 -137 2287 11 3175 97 582 240 1058 452 1500 501 1042 1319 1706
2491 2019 420 113 1134 201 1473 182 423 -23 1225 -176 2132 -406 679 -172
1146 -311 1745 -519 1214 -423 2435 -673 3625 -742 247 -14 869 -14 1105 0
1362 83 2509 414 3605 1040 88 50 257 140 375 200 865 438 1662 694 2445 786
188 22 672 31 858 16 669 -56 1248 -255 1782 -615 370 -249 750 -628 1029
-1026 602 -856 980 -1978 1110 -3295 36 -357 41 -486 41 -1015 0 -506 -5 -633
-36 -980 -83 -945 -335 -2367 -674 -3811 -558 -2372 -1449 -5284 -2445 -7983
-190 -515 -205 -554 -913 -2256 -371 -894 -680 -1646 -687 -1670 -28 -106
-127 -397 -182 -535 -228 -567 -483 -911 -753 -1016 -87 -33 -224 -32 -316 2
-100 38 -196 108 -305 222 -160 166 -300 381 -454 692 -150 305 -354 816 -419
1051 -325 1167 -2273 3863 -5910 8174 -179 212 -457 542 -619 733 -245 291
-575 651 -1978 2158 -927 996 -1684 1814 -1682 1819 2 4 570 620 1263 1369
l1260 1361 210 -5 c116 -3 1405 -14 2865 -26 1460 -11 2665 -23 2677 -27 18
-6 2523 -2452 2531 -2471 1 -3 -862 -915 -1917 -2026 l-1920 -2020 757 -758
c416 -416 760 -756 763 -755 4 2 1265 1206 2802 2676 1538 1470 2822 2696
2853 2725 l57 53 -2377 2402 -2377 2402 -4122 0 -4122 -1 -2295 -2346 c-1262
-1290 -2295 -2350 -2295 -2354 0 -5 1398 -1430 3106 -3166 2598 -2642 3135
-3192 3285 -3368 98 -115 345 -401 549 -635 417 -477 698 -807 921 -1080 989
-1212 1894 -2532 2966 -4325 413 -691 876 -1502 1003 -1755 498 -997 968
-1752 1444 -2325 155 -186 499 -532 646 -649 428 -340 813 -498 1215 -498 508
1 984 293 1318 807 231 356 667 1077 984 1630 1082 1885 2039 3837 2756 5625
946 2360 1713 4686 2202 6685 479 1956 735 3619 822 5345 16 318 16 1327 0
1625 -72 1332 -267 2442 -612 3476 -404 1210 -1037 2141 -1895 2784 -794 595
-1738 930 -2935 1041 -163 15 -981 28 -1125 18z"/>
</g>
</svg>
